<?xml version="1.0" encoding="utf-8"?>
<!-- Generator: Adobe Illustrator 27.5.0, SVG Export Plug-In . SVG Version: 6.00 Build 0)  -->
<svg version="1.1" xmlns="http://www.w3.org/2000/svg" xmlns:xlink="http://www.w3.org/1999/xlink" x="0px" y="0px"
	 viewBox="0 0 500 500" style="enable-background:new 0 0 500 500;" xml:space="preserve">
<g id="BACKGROUND">
	<rect x="0.001" y="0.002" style="fill:#FFFFFF;" width="500" height="500.002"/>
</g>
<g id="OBJECTS">
	<g>
		<g>
			
				<circle style="fill:#FFD373;stroke:#2647A3;stroke-linecap:round;stroke-linejoin:round;" cx="412.207" cy="166.982" r="14.667"/>
			<path style="fill:#FFD373;stroke:#2647A3;stroke-linecap:round;stroke-linejoin:round;" d="M414.207,145.566c0,1.104-0.896,2-2,2
				l0,0c-1.105,0-2-0.896-2-2v-5.875c0-1.105,0.895-2,2-2l0,0c1.104,0,2,0.895,2,2V145.566z"/>
			<path style="fill:#FFD373;stroke:#2647A3;stroke-linecap:round;stroke-linejoin:round;" d="M398.478,150.424
				c0.781,0.781,0.781,2.048,0,2.829l0,0c-0.781,0.78-2.047,0.78-2.828-0.001l-4.154-4.154c-0.781-0.78-0.781-2.047,0-2.828l0,0
				c0.781-0.781,2.047-0.781,2.828,0L398.478,150.424z"/>
			<path style="fill:#FFD373;stroke:#2647A3;stroke-linecap:round;stroke-linejoin:round;" d="M390.791,164.98
				c1.105,0,2.001,0.896,2,2l0,0c0,1.105-0.895,2-2,2h-5.875c-1.103,0-2-0.895-2-2l0,0c0-1.105,0.896-2,2-2H390.791z"/>
			<path style="fill:#FFD373;stroke:#2647A3;stroke-linecap:round;stroke-linejoin:round;" d="M395.648,180.709
				c0.781-0.781,2.049-0.781,2.828,0l0,0c0.781,0.781,0.781,2.047,0,2.828l-4.154,4.154c-0.779,0.781-2.047,0.783-2.828,0.001l0,0
				c-0.781-0.782-0.781-2.048,0-2.829L395.648,180.709z"/>
			<path style="fill:#FFD373;stroke:#2647A3;stroke-linecap:round;stroke-linejoin:round;" d="M410.205,188.396
				c0-1.104,0.897-2.001,2-2l0,0c1.105,0,2,0.895,2,2v5.875c0.001,1.104-0.895,2.002-2,2l0,0c-1.105,0-2-0.895-2-2V188.396z"/>
			<path style="fill:#FFD373;stroke:#2647A3;stroke-linecap:round;stroke-linejoin:round;" d="M425.934,183.539
				c-0.781-0.781-0.781-2.049,0-2.828l0,0c0.781-0.781,2.047-0.781,2.829,0l4.154,4.154c0.78,0.779,0.782,2.049-0.001,2.828l0,0
				c-0.781,0.782-2.046,0.782-2.828,0L425.934,183.539z"/>
			<path style="fill:#FFD373;stroke:#2647A3;stroke-linecap:round;stroke-linejoin:round;" d="M433.621,168.982
				c-1.105,0-2.002-0.896-2-1.999l0,0c0-1.104,0.896-2,2-2.001h5.875c1.103,0,2.002,0.896,2,2.001l0,0c0,1.105-0.895,1.999-2,2
				L433.621,168.982z"/>
			<path style="fill:#FFD373;stroke:#2647A3;stroke-linecap:round;stroke-linejoin:round;" d="M428.764,153.254
				c-0.781,0.781-2.049,0.781-2.828,0l0,0c-0.78-0.78-0.78-2.047,0-2.828l4.154-4.154c0.78-0.78,2.049-0.781,2.828,0l0,0
				c0.781,0.781,0.781,2.047,0.001,2.829L428.764,153.254z"/>
		</g>
		<path style="fill:#F2FCFF;stroke:#2647A3;stroke-linecap:round;stroke-linejoin:round;" d="M105.013,199.964
			c-1.142,0-2.254,0.117-3.332,0.329c-3.867-7.971-12.012-13.48-21.464-13.48c-12.507,0-22.751,9.624-23.771,21.869
			c-0.721-0.124-1.458-0.201-2.216-0.201c-7.2,0-13.036,5.837-13.036,13.035c0,7.199,5.836,13.036,13.036,13.036
			c4.419,0,46.468,0,50.784,0c9.549,0,17.294-7.745,17.294-17.294C122.306,207.703,114.562,199.964,105.013,199.964z"/>
		<path style="fill:#F2FCFF;stroke:#2647A3;stroke-linecap:round;stroke-linejoin:round;" d="M416.141,172.376
			c-1.685,0-3.324,0.174-4.915,0.486c-5.702-11.756-17.716-19.882-31.655-19.882c-18.446,0-33.554,14.193-35.059,32.254
			c-1.064-0.184-2.151-0.298-3.268-0.298c-10.618,0-19.226,8.608-19.226,19.225c0,10.618,8.607,19.227,19.226,19.227
			c6.517,0,68.532,0,74.897,0c14.083,0,25.505-11.423,25.505-25.506C441.645,183.791,430.224,172.376,416.141,172.376z"/>
		<g>
			<g>
				<path style="fill:#81D678;stroke:#2647A3;stroke-linecap:round;stroke-linejoin:round;" d="M370.207,261.489
					c-11.184,29.125,12.951,48.732,12.951,48.732l37.549-97.781C420.707,212.44,381.473,232.156,370.207,261.489z"/>
				<path style="fill:#64B05B;stroke:#2647A3;stroke-linecap:round;stroke-linejoin:round;" d="M425.399,282.685
					c-11.185,29.124-42.24,27.537-42.24,27.537l37.55-97.781C420.709,212.44,436.663,253.35,425.399,282.685z"/>
			</g>
			<g>
				<path style="fill:#81D678;stroke:#2647A3;stroke-linecap:round;stroke-linejoin:round;" d="M392.936,303.131
					c-18.965,13.622-11.926,35.807-11.926,35.807l63.674-45.734C444.685,293.203,412.039,289.412,392.936,303.131z"/>
				<path style="fill:#64B05B;stroke:#2647A3;stroke-linecap:round;stroke-linejoin:round;" d="M418.752,339.073
					c-18.967,13.621-37.74-0.135-37.74-0.135l63.675-45.734C444.686,293.204,437.853,325.352,418.752,339.073z"/>
			</g>
			<g>
				<path style="fill:#81D678;stroke:#2647A3;stroke-linecap:round;stroke-linejoin:round;" d="M129.793,261.489
					c11.184,29.125-12.951,48.732-12.951,48.732L79.293,212.44C79.293,212.44,118.527,232.156,129.793,261.489z"/>
				<path style="fill:#64B05B;stroke:#2647A3;stroke-linecap:round;stroke-linejoin:round;" d="M74.601,282.685
					c11.186,29.124,42.24,27.537,42.24,27.537l-37.55-97.781C79.291,212.44,63.337,253.35,74.601,282.685z"/>
			</g>
			<g>
				<path style="fill:#81D678;stroke:#2647A3;stroke-linecap:round;stroke-linejoin:round;" d="M107.063,303.131
					c18.965,13.622,11.926,35.807,11.926,35.807l-63.674-45.734C55.315,293.203,87.961,289.412,107.063,303.131z"/>
				<path style="fill:#64B05B;stroke:#2647A3;stroke-linecap:round;stroke-linejoin:round;" d="M81.248,339.073
					c18.967,13.621,37.74-0.135,37.74-0.135l-63.675-45.734C55.313,293.204,62.146,325.352,81.248,339.073z"/>
			</g>
		</g>
		
			<line style="fill-rule:evenodd;clip-rule:evenodd;fill:none;stroke:#2647A3;stroke-linecap:round;stroke-linejoin:round;" x1="28.333" y1="345.093" x2="471.667" y2="345.093"/>
		<g>
			<path style="fill-rule:evenodd;clip-rule:evenodd;fill:#BADBF7;stroke:#2647A3;stroke-linecap:round;stroke-linejoin:round;" d="
				M440.395,368.229l-41.773-8.8c-7.076-2.396-14.887-4.191-17.943-4.191H119.321c-3.055,0-10.865,1.795-17.941,4.191l-41.775,8.8
				v7.295h0.068c0.151,0.183,0.579,0.283,1.329,0.283h377.994c0.752,0,1.18-0.101,1.33-0.283h0.068V368.229z"/>
			<path style="fill-rule:evenodd;clip-rule:evenodd;fill:#86B3DB;stroke:#2647A3;stroke-linecap:round;stroke-linejoin:round;" d="
				M287.248,368.93c0,1.657-1.343,3-3,3h-68.496c-1.657,0-3-1.343-3-3v-15.95c0-1.657,1.343-3,3-3h68.496c1.657,0,3,1.343,3,3
				V368.93z"/>
			<g>
				<g>
					
						<path style="fill-rule:evenodd;clip-rule:evenodd;fill:#FFFFFF;stroke:#2647A3;stroke-linecap:round;stroke-linejoin:round;" d="
						M385.221,347.551c0,3.06-2.5,5.558-5.557,5.558H118.307c-3.055,0-5.556-2.498-5.556-5.558V193.743
						c0-3.056,2.501-5.559,5.556-5.559h261.357c3.057,0,5.557,2.503,5.557,5.559V347.551z"/>
				</g>
				<g>
					
						<rect x="118.401" y="194.27" style="fill-rule:evenodd;clip-rule:evenodd;fill:#BADBF7;stroke:#2647A3;stroke-linecap:round;stroke-linejoin:round;" width="261.167" height="146.255"/>
				</g>
			</g>
			<g>
				
					<path style="fill-rule:evenodd;clip-rule:evenodd;fill:#86B3DB;stroke:#2647A3;stroke-linecap:round;stroke-linejoin:round;" d="
					M169.023,352.358c0,1.656-1.343,3-3,3h-26.628c-1.657,0-3-1.344-3-3v-4.266c0-1.657,1.343-3,3-3h26.628c1.657,0,3,1.343,3,3
					V352.358z"/>
				
					<path style="fill-rule:evenodd;clip-rule:evenodd;fill:#86B3DB;stroke:#2647A3;stroke-linecap:round;stroke-linejoin:round;" d="
					M361.576,352.358c0,1.656-1.344,3-3,3h-26.628c-1.657,0-3-1.344-3-3v-4.266c0-1.657,1.343-3,3-3h26.628c1.656,0,3,1.343,3,3
					V352.358z"/>
			</g>
			<path style="fill-rule:evenodd;clip-rule:evenodd;fill:#FFFFFF;stroke:#2647A3;stroke-linecap:round;stroke-linejoin:round;" d="
				M425.844,361.486c11.057,3.738,17.574,7.166,13.152,7.166H61.002c-4.419,0,2.099-3.428,13.153-7.166l27.225-9.212
				c7.076-2.397,14.886-4.191,17.941-4.191h261.356c3.057,0,10.867,1.795,17.943,4.191L425.844,361.486z"/>
			<g>
				<path style="fill-rule:evenodd;clip-rule:evenodd;fill:#2647A3;" d="M381.994,357.813c0.504,0.198-0.723,0.369-2.742,0.369
					h-9.192c-2.023,0-4.048-0.171-4.489-0.369l-1.861-0.842c-0.428-0.189,0.824-0.354,2.785-0.354h8.92
					c1.959,0,3.965,0.165,4.455,0.354L381.994,357.813z"/>
				<path style="fill-rule:evenodd;clip-rule:evenodd;fill:#2647A3;" d="M362.365,357.813c0.43,0.198-0.865,0.369-2.881,0.369h-9.41
					c-2.02,0-3.98-0.171-4.348-0.369l-1.54-0.842c-0.355-0.189,0.957-0.354,2.915-0.354h9.132c1.956,0,3.905,0.165,4.323,0.354
					L362.365,357.813z"/>
				<path style="fill-rule:evenodd;clip-rule:evenodd;fill:#2647A3;" d="M342.523,357.813c0.355,0.198-1.006,0.369-3.025,0.369
					h-7.434c-2.019,0-3.924-0.171-4.222-0.369l-1.253-0.842c-0.289-0.189,1.08-0.354,3.037-0.354h7.215
					c1.959,0,3.85,0.165,4.192,0.354L342.523,357.813z"/>
				<path style="fill-rule:evenodd;clip-rule:evenodd;fill:#2647A3;" d="M324.643,357.813c0.287,0.198-1.13,0.369-3.146,0.369
					h-8.281c-2.02,0-3.862-0.171-4.089-0.369l-0.952-0.842c-0.219-0.189,1.204-0.354,3.164-0.354h8.035
					c1.957,0,3.791,0.165,4.068,0.354L324.643,357.813z"/>
				<path style="fill-rule:evenodd;clip-rule:evenodd;fill:#2647A3;" d="M305.924,357.813c0.214,0.198-1.258,0.369-3.279,0.369
					H201.131c-2.017,0-3.501-0.171-3.302-0.369l0.84-0.842c0.194-0.189,1.956-0.354,3.913-0.354h98.5
					c1.961,0,3.734,0.165,3.941,0.354L305.924,357.813z"/>
				<path style="fill-rule:evenodd;clip-rule:evenodd;fill:#2647A3;" d="M194.622,357.813c-0.212,0.198-2.041,0.369-4.061,0.369
					h-8.511c-2.019,0-3.443-0.171-3.17-0.369l1.145-0.842c0.264-0.189,2.085-0.354,4.044-0.354h8.258
					c1.96,0,3.394,0.165,3.188,0.354L194.622,357.813z"/>
				<path style="fill-rule:evenodd;clip-rule:evenodd;fill:#2647A3;" d="M175.674,357.813c-0.284,0.198-2.177,0.369-4.195,0.369
					h-8.639c-2.018,0-3.379-0.171-3.034-0.369l1.452-0.842c0.335-0.189,2.213-0.354,4.17-0.354h8.383
					c1.958,0,3.336,0.165,3.06,0.354L175.674,357.813z"/>
				<path style="fill-rule:evenodd;clip-rule:evenodd;fill:#2647A3;" d="M156.597,357.813c-0.357,0.198-2.311,0.369-4.332,0.369
					h-8.273c-2.023,0-3.323-0.171-2.906-0.369l1.753-0.842c0.404-0.189,2.338-0.354,4.3-0.354h8.028c1.96,0,3.28,0.165,2.933,0.354
					L156.597,357.813z"/>
				<path style="fill-rule:evenodd;clip-rule:evenodd;fill:#2647A3;" d="M137.876,357.813c-0.429,0.198-2.441,0.369-4.46,0.369
					h-9.359c-2.019,0-3.259-0.171-2.767-0.369l2.072-0.842c0.478-0.189,2.476-0.354,4.434-0.354h9.081
					c1.959,0,3.219,0.165,2.803,0.354L137.876,357.813z"/>
				<path style="fill-rule:evenodd;clip-rule:evenodd;fill:#2647A3;" d="M390.609,354.857c1.895,0,3.867,0.147,4.395,0.328
					l2.307,0.79c0.547,0.185-0.6,0.336-2.549,0.336h-9.893c-1.951,0-3.939-0.151-4.424-0.336l-2.043-0.79
					c-0.467-0.182,0.703-0.328,2.598-0.328H390.609z"/>
				<path style="fill-rule:evenodd;clip-rule:evenodd;fill:#2647A3;" d="M377.348,355.976c0.471,0.185-0.734,0.336-2.682,0.336
					h-8.867c-1.949,0-3.885-0.151-4.298-0.336l-1.746-0.79c-0.399-0.182,0.829-0.328,2.723-0.328h8.612
					c1.893,0,3.807,0.147,4.264,0.328L377.348,355.976z"/>
				<path style="fill-rule:evenodd;clip-rule:evenodd;fill:#2647A3;" d="M358.408,355.976c0.402,0.185-0.865,0.336-2.809,0.336
					h-26.447c-1.946,0-3.771-0.151-4.05-0.336l-1.176-0.79c-0.27-0.182,1.064-0.328,2.954-0.328h25.689
					c1.889,0,3.752,0.147,4.141,0.328L358.408,355.976z"/>
				<path style="fill-rule:evenodd;clip-rule:evenodd;fill:#2647A3;" d="M322.015,355.976c0.268,0.185-1.11,0.336-3.056,0.336
					h-7.986c-1.949,0-3.717-0.151-3.928-0.336l-0.893-0.79c-0.205-0.182,1.178-0.328,3.07-0.328h7.758
					c1.89,0,3.648,0.147,3.907,0.328L322.015,355.976z"/>
				<path style="fill-rule:evenodd;clip-rule:evenodd;fill:#2647A3;" d="M303.955,355.976c0.199,0.185-1.228,0.336-3.178,0.336
					h-9.031c-1.947,0-3.654-0.151-3.795-0.336l-0.594-0.79c-0.137-0.182,1.301-0.328,3.191-0.328h8.771
					c1.894,0,3.596,0.147,3.789,0.328L303.955,355.976z"/>
				<path style="fill-rule:evenodd;clip-rule:evenodd;fill:#2647A3;" d="M284.857,355.976c0.129,0.185-1.357,0.336-3.309,0.336
					h-6.984c-1.949,0-3.604-0.151-3.682-0.336l-0.327-0.79c-0.075-0.182,1.411-0.328,3.304-0.328h6.784
					c1.896,0,3.542,0.147,3.667,0.328L284.857,355.976z"/>
				<path style="fill-rule:evenodd;clip-rule:evenodd;fill:#2647A3;" d="M267.791,355.976c0.065,0.185-1.477,0.336-3.424,0.336
					h-8.33c-1.947,0-3.549-0.151-3.558-0.336l-0.039-0.79c-0.009-0.182,1.532-0.328,3.423-0.328h8.092
					c1.891,0,3.493,0.147,3.557,0.328L267.791,355.976z"/>
				<path style="fill-rule:evenodd;clip-rule:evenodd;fill:#2647A3;" d="M249.383,355.976c-0.002,0.185-1.599,0.336-3.548,0.336
					h-7.98c-1.951,0-3.497-0.151-3.439-0.336l0.244-0.79c0.056-0.182,1.649-0.328,3.544-0.328h7.751
					c1.894,0,3.441,0.147,3.439,0.328L249.383,355.976z"/>
				<path style="fill-rule:evenodd;clip-rule:evenodd;fill:#2647A3;" d="M231.322,355.976c-0.069,0.185-1.719,0.336-3.668,0.336
					h-9.026c-1.946,0-3.435-0.151-3.307-0.336l0.543-0.79c0.125-0.182,1.774-0.328,3.665-0.328h8.767
					c1.894,0,3.387,0.147,3.32,0.328L231.322,355.976z"/>
				<path style="fill-rule:evenodd;clip-rule:evenodd;fill:#2647A3;" d="M212.228,355.976c-0.14,0.185-1.849,0.336-3.799,0.336
					h-8.208c-1.943,0-3.379-0.151-3.183-0.336l0.83-0.79c0.19-0.182,1.893-0.328,3.781-0.328h7.972c1.895,0,3.334,0.147,3.199,0.328
					L212.228,355.976z"/>
				<path style="fill-rule:evenodd;clip-rule:evenodd;fill:#2647A3;" d="M193.945,355.976c-0.208,0.185-1.972,0.336-3.923,0.336
					h-8.331c-1.945,0-3.324-0.151-3.059-0.336l1.117-0.79c0.256-0.182,2.012-0.328,3.901-0.328h8.092
					c1.895,0,3.281,0.147,3.08,0.328L193.945,355.976z"/>
				<path style="fill-rule:evenodd;clip-rule:evenodd;fill:#2647A3;" d="M175.542,355.976c-0.277,0.185-2.098,0.336-4.046,0.336
					h-7.985c-1.948,0-3.27-0.151-2.938-0.336l1.4-0.79c0.321-0.182,2.126-0.328,4.019-0.328h7.755c1.893,0,3.228,0.147,2.96,0.328
					L175.542,355.976z"/>
				<path style="fill-rule:evenodd;clip-rule:evenodd;fill:#2647A3;" d="M157.481,355.976c-0.343,0.185-2.218,0.336-4.167,0.336
					h-9.026c-1.95,0-3.213-0.151-2.811-0.336l1.7-0.79c0.39-0.182,2.249-0.328,4.143-0.328h8.768c1.893,0,3.174,0.147,2.842,0.328
					L157.481,355.976z"/>
				<path style="fill-rule:evenodd;clip-rule:evenodd;fill:#2647A3;" d="M138.384,355.976c-0.414,0.185-2.347,0.336-4.294,0.336
					h-28.853c-1.947,0-3.095-0.151-2.548-0.336l2.307-0.79c0.53-0.182,2.504-0.328,4.395-0.328h28.024
					c1.892,0,3.118,0.147,2.717,0.328L138.384,355.976z"/>
				<path style="fill-rule:evenodd;clip-rule:evenodd;fill:#2647A3;" d="M386,353.242c1.83,0,3.732,0.142,4.227,0.308l2.057,0.704
					c0.518,0.178-0.605,0.317-2.488,0.317h-9.555c-1.883,0-3.789-0.14-4.246-0.317l-1.822-0.704
					c-0.436-0.166,0.701-0.308,2.533-0.308H386z"/>
				<path style="fill-rule:evenodd;clip-rule:evenodd;fill:#2647A3;" d="M373.002,354.254c0.445,0.178-0.733,0.317-2.612,0.317
					H336.82c-1.881,0-3.663-0.14-3.963-0.317l-1.199-0.704c-0.287-0.166,0.975-0.308,2.805-0.308h32.657
					c1.829,0,3.675,0.142,4.103,0.308L373.002,354.254z"/>
				<path style="fill-rule:evenodd;clip-rule:evenodd;fill:#2647A3;" d="M329.866,354.254c0.29,0.178-1.017,0.317-2.898,0.317h-8.04
					c-1.887,0-3.612-0.14-3.848-0.317l-0.941-0.704c-0.227-0.166,1.082-0.308,2.917-0.308h7.821c1.831,0,3.557,0.142,3.834,0.308
					L329.866,354.254z"/>
				<path style="fill-rule:evenodd;clip-rule:evenodd;fill:#2647A3;" d="M312.091,354.254c0.226,0.178-1.132,0.317-3.014,0.317
					h-7.708c-1.885,0-3.56-0.14-3.734-0.317l-0.689-0.704c-0.165-0.166,1.195-0.308,3.028-0.308h7.498
					c1.831,0,3.505,0.142,3.72,0.308L312.091,354.254z"/>
				<path style="fill-rule:evenodd;clip-rule:evenodd;fill:#2647A3;" d="M294.648,354.254c0.162,0.178-1.247,0.317-3.127,0.317
					h-8.72c-1.878,0-3.509-0.14-3.614-0.317l-0.422-0.704c-0.102-0.166,1.318-0.308,3.146-0.308h8.482
					c1.829,0,3.455,0.142,3.608,0.308L294.648,354.254z"/>
				<path style="fill-rule:evenodd;clip-rule:evenodd;fill:#2647A3;" d="M276.204,354.254c0.095,0.178-1.37,0.317-3.249,0.317
					h-6.749c-1.881,0-3.457-0.14-3.503-0.317l-0.184-0.704c-0.044-0.166,1.418-0.308,3.247-0.308h6.565
					c1.828,0,3.402,0.142,3.492,0.308L276.204,354.254z"/>
				<path style="fill-rule:evenodd;clip-rule:evenodd;fill:#2647A3;" d="M259.717,354.254c0.035,0.178-1.477,0.317-3.359,0.317
					h-8.042c-1.882,0-3.405-0.14-3.387-0.317l0.073-0.704c0.018-0.166,1.529-0.308,3.36-0.308h7.825c1.831,0,3.357,0.142,3.39,0.308
					L259.717,354.254z"/>
				<path style="fill-rule:evenodd;clip-rule:evenodd;fill:#2647A3;" d="M241.939,354.254c-0.029,0.178-1.588,0.317-3.474,0.317
					h-7.706c-1.884,0-3.355-0.14-3.273-0.317l0.325-0.704c0.08-0.166,1.639-0.308,3.472-0.308h7.497
					c1.835,0,3.305,0.142,3.276,0.308L241.939,354.254z"/>
				<path style="fill-rule:evenodd;clip-rule:evenodd;fill:#2647A3;" d="M224.495,354.254c-0.093,0.178-1.705,0.317-3.586,0.317
					h-8.719c-1.881,0-3.301-0.14-3.152-0.317l0.592-0.704c0.143-0.166,1.758-0.308,3.588-0.308h8.482
					c1.83,0,3.253,0.142,3.164,0.308L224.495,354.254z"/>
				<path style="fill-rule:evenodd;clip-rule:evenodd;fill:#2647A3;" d="M206.052,354.254c-0.159,0.178-1.829,0.317-3.712,0.317
					h-7.926c-1.876,0-3.247-0.14-3.035-0.317l0.848-0.704c0.205-0.166,1.872-0.308,3.697-0.308h7.712
					c1.831,0,3.205,0.142,3.052,0.308L206.052,354.254z"/>
				<path style="fill-rule:evenodd;clip-rule:evenodd;fill:#2647A3;" d="M188.395,354.254c-0.223,0.178-1.942,0.317-3.823,0.317
					h-8.048c-1.883,0-3.196-0.14-2.919-0.317l1.105-0.704c0.267-0.166,1.979-0.308,3.811-0.308h7.829
					c1.83,0,3.151,0.142,2.936,0.308L188.395,354.254z"/>
				<path style="fill-rule:evenodd;clip-rule:evenodd;fill:#2647A3;" d="M170.616,354.254c-0.287,0.178-2.058,0.317-3.942,0.317
					h-7.706c-1.883,0-3.145-0.14-2.805-0.317l1.357-0.704c0.327-0.166,2.089-0.308,3.92-0.308h7.497
					c1.833,0,3.103,0.142,2.826,0.308L170.616,354.254z"/>
				<path style="fill-rule:evenodd;clip-rule:evenodd;fill:#2647A3;" d="M153.174,354.254c-0.351,0.178-2.177,0.317-4.057,0.317
					h-8.719c-1.883,0-3.092-0.14-2.685-0.317l1.624-0.704c0.391-0.166,2.207-0.308,4.039-0.308h8.482
					c1.829,0,3.054,0.142,2.716,0.308L153.174,354.254z"/>
				<path style="fill-rule:evenodd;clip-rule:evenodd;fill:#2647A3;" d="M134.728,354.254c-0.418,0.178-2.297,0.317-4.175,0.317
					h-20.348c-1.88,0-3.004-0.14-2.488-0.317l2.058-0.704c0.496-0.166,2.4-0.308,4.229-0.308h19.795
					c1.828,0,2.999,0.142,2.598,0.308L134.728,354.254z"/>
				<path style="fill-rule:evenodd;clip-rule:evenodd;fill:#2647A3;" d="M381.447,351.648c1.77,0,3.586,0.118,4.051,0.283
					l2.178,0.745c0.477,0.163-0.613,0.299-2.436,0.299h-9.242c-1.822,0-3.662-0.136-4.084-0.299l-1.929-0.745
					c-0.411-0.165,0.706-0.283,2.478-0.283H381.447z"/>
				<path style="fill-rule:evenodd;clip-rule:evenodd;fill:#2647A3;" d="M369.018,352.677c0.413,0.163-0.731,0.299-2.551,0.299
					h-20.883c-1.819,0-3.573-0.136-3.891-0.299l-1.451-0.745c-0.31-0.165,0.893-0.283,2.66-0.283h20.297
					c1.77,0,3.533,0.118,3.936,0.283L369.018,352.677z"/>
				<path style="fill-rule:evenodd;clip-rule:evenodd;fill:#2647A3;" d="M338.803,352.677c0.309,0.163-0.926,0.299-2.748,0.299
					h-8.086c-1.817,0-3.525-0.136-3.783-0.299l-1.174-0.745c-0.25-0.165,1.004-0.283,2.77-0.283h7.859
					c1.771,0,3.457,0.118,3.758,0.283L338.803,352.677z"/>
				<path style="fill-rule:evenodd;clip-rule:evenodd;fill:#2647A3;" d="M321.299,352.677c0.248,0.163-1.037,0.299-2.859,0.299
					h-7.779c-1.82,0-3.473-0.136-3.67-0.299l-0.902-0.745c-0.193-0.165,1.102-0.283,2.871-0.283h7.56
					c1.771,0,3.41,0.118,3.651,0.283L321.299,352.677z"/>
				<path style="fill-rule:evenodd;clip-rule:evenodd;fill:#2647A3;" d="M304.1,352.677c0.187,0.163-1.146,0.299-2.969,0.299h-7.457
					c-1.821,0-3.425-0.136-3.563-0.299l-0.637-0.745c-0.135-0.165,1.203-0.283,2.975-0.283h7.247c1.772,0,3.363,0.118,3.546,0.283
					L304.1,352.677z"/>
				<path style="fill-rule:evenodd;clip-rule:evenodd;fill:#2647A3;" d="M287.219,352.677c0.129,0.163-1.252,0.299-3.072,0.299
					h-8.432c-1.82,0-3.373-0.136-3.449-0.299l-0.354-0.745c-0.075-0.165,1.313-0.283,3.081-0.283h8.195
					c1.77,0,3.315,0.118,3.44,0.283L287.219,352.677z"/>
				<path style="fill-rule:evenodd;clip-rule:evenodd;fill:#2647A3;" d="M269.37,352.677c0.066,0.163-1.364,0.299-3.185,0.299
					h-6.525c-1.819,0-3.328-0.136-3.35-0.299l-0.101-0.745c-0.021-0.165,1.412-0.283,3.18-0.283h6.343
					c1.769,0,3.266,0.118,3.331,0.283L269.37,352.677z"/>
				<path style="fill-rule:evenodd;clip-rule:evenodd;fill:#2647A3;" d="M253.42,352.677c0.012,0.163-1.469,0.299-3.29,0.299h-7.78
					c-1.818,0-3.278-0.136-3.239-0.299l0.171-0.745c0.037-0.165,1.516-0.283,3.283-0.283h7.561c1.77,0,3.229,0.118,3.239,0.283
					L253.42,352.677z"/>
				<path style="fill-rule:evenodd;clip-rule:evenodd;fill:#2647A3;" d="M236.222,352.677c-0.049,0.163-1.579,0.299-3.399,0.299
					h-7.459c-1.819,0-3.229-0.136-3.132-0.299l0.438-0.745c0.093-0.165,1.617-0.283,3.385-0.283h7.25
					c1.769,0,3.18,0.118,3.134,0.283L236.222,352.677z"/>
				<path style="fill-rule:evenodd;clip-rule:evenodd;fill:#2647A3;" d="M219.339,352.677c-0.108,0.163-1.685,0.299-3.503,0.299
					h-8.432c-1.823,0-3.179-0.136-3.02-0.299l0.719-0.745c0.154-0.165,1.723-0.283,3.495-0.283h8.195
					c1.767,0,3.132,0.118,3.028,0.283L219.339,352.677z"/>
				<path style="fill-rule:evenodd;clip-rule:evenodd;fill:#2647A3;" d="M201.493,352.677c-0.169,0.163-1.796,0.299-3.616,0.299
					h-7.666c-1.822,0-3.13-0.136-2.911-0.299l0.99-0.745c0.212-0.165,1.827-0.283,3.598-0.283h7.451
					c1.768,0,3.083,0.118,2.919,0.283L201.493,352.677z"/>
				<path style="fill-rule:evenodd;clip-rule:evenodd;fill:#2647A3;" d="M184.406,352.677c-0.229,0.163-1.907,0.299-3.724,0.299
					h-7.784c-1.821,0-3.08-0.136-2.802-0.299l1.262-0.745c0.27-0.165,1.932-0.283,3.703-0.283h7.565
					c1.766,0,3.037,0.118,2.815,0.283L184.406,352.677z"/>
				<path style="fill-rule:evenodd;clip-rule:evenodd;fill:#2647A3;" d="M167.207,352.677c-0.289,0.163-2.015,0.299-3.836,0.299
					h-7.461c-1.817,0-3.03-0.136-2.692-0.299l1.528-0.745c0.327-0.165,2.037-0.283,3.803-0.283h7.252
					c1.77,0,2.994,0.118,2.714,0.283L167.207,352.677z"/>
				<path style="fill-rule:evenodd;clip-rule:evenodd;fill:#2647A3;" d="M150.329,352.677c-0.347,0.163-2.124,0.299-3.943,0.299
					h-8.433c-1.818,0-2.98-0.136-2.581-0.299l1.811-0.745c0.387-0.165,2.145-0.283,3.913-0.283h8.196
					c1.768,0,2.948,0.118,2.611,0.283L150.329,352.677z"/>
				<path style="fill-rule:evenodd;clip-rule:evenodd;fill:#2647A3;" d="M132.483,352.677c-0.409,0.163-2.234,0.299-4.058,0.299
					h-13.665c-1.818,0-2.914-0.136-2.435-0.299l2.175-0.745c0.465-0.165,2.286-0.283,4.053-0.283h13.281
					c1.772,0,2.901,0.118,2.504,0.283L132.483,352.677z"/>
				<path style="fill-rule:evenodd;clip-rule:evenodd;fill:#2647A3;" d="M132.006,351.118c-0.394,0.149-2.157,0.279-3.919,0.279
					h-8.822c-1.758,0-2.83-0.13-2.387-0.279l1.825-0.627c0.429-0.146,2.187-0.266,3.9-0.266h8.596c1.717,0,2.804,0.12,2.424,0.266
					L132.006,351.118z"/>
				<path style="fill-rule:evenodd;clip-rule:evenodd;fill:#2647A3;" d="M149.263,351.118c-0.335,0.149-2.054,0.279-3.813,0.279
					h-8.152c-1.76,0-2.879-0.13-2.496-0.279l1.579-0.627c0.372-0.146,2.079-0.266,3.794-0.266h7.943c1.714,0,2.849,0.12,2.524,0.266
					L149.263,351.118z"/>
				<path style="fill-rule:evenodd;clip-rule:evenodd;fill:#2647A3;" d="M165.586,351.118c-0.281,0.149-1.956,0.279-3.715,0.279
					h-7.213c-1.757,0-2.926-0.13-2.6-0.279l1.342-0.627c0.316-0.146,1.98-0.266,3.691-0.266h7.029c1.713,0,2.894,0.12,2.622,0.266
					L165.586,351.118z"/>
				<path style="fill-rule:evenodd;clip-rule:evenodd;fill:#2647A3;" d="M182.215,351.118c-0.226,0.149-1.852,0.279-3.61,0.279
					h-7.525c-1.758,0-2.973-0.13-2.7-0.279l1.118-0.627c0.264-0.146,1.884-0.266,3.597-0.266h7.333c1.714,0,2.936,0.12,2.716,0.266
					L182.215,351.118z"/>
				<path style="fill-rule:evenodd;clip-rule:evenodd;fill:#2647A3;" d="M198.739,351.118c-0.171,0.149-1.753,0.279-3.514,0.279
					h-7.413c-1.762,0-3.02-0.13-2.803-0.279l0.89-0.627c0.21-0.146,1.783-0.266,3.5-0.266h7.223c1.716,0,2.983,0.12,2.818,0.266
					L198.739,351.118z"/>
				<path style="fill-rule:evenodd;clip-rule:evenodd;fill:#2647A3;" d="M215.992,351.118c-0.113,0.149-1.646,0.279-3.404,0.279
					h-8.151c-1.762,0-3.066-0.13-2.904-0.279l0.664-0.627c0.157-0.146,1.686-0.266,3.403-0.266h7.943
					c1.712,0,3.025,0.12,2.915,0.266L215.992,351.118z"/>
				<path style="fill-rule:evenodd;clip-rule:evenodd;fill:#2647A3;" d="M232.315,351.118c-0.059,0.149-1.547,0.279-3.306,0.279
					h-7.213c-1.758,0-3.112-0.13-3.009-0.279l0.428-0.627c0.101-0.146,1.588-0.266,3.3-0.266h7.029c1.714,0,3.07,0.12,3.012,0.266
					L232.315,351.118z"/>
				<path style="fill-rule:evenodd;clip-rule:evenodd;fill:#2647A3;" d="M248.946,351.118c-0.004,0.149-1.445,0.279-3.207,0.279
					h-7.523c-1.758,0-3.159-0.13-3.109-0.279l0.204-0.627c0.049-0.146,1.492-0.266,3.206-0.266h7.33c1.716,0,3.117,0.12,3.112,0.266
					L248.946,351.118z"/>
				<path style="fill-rule:evenodd;clip-rule:evenodd;fill:#2647A3;" d="M264.371,351.118c0.047,0.149-1.35,0.279-3.111,0.279
					h-6.309c-1.76,0-3.205-0.13-3.211-0.279l-0.023-0.627c-0.006-0.146,1.393-0.266,3.107-0.266h6.148
					c1.717,0,3.155,0.12,3.201,0.266L264.371,351.118z"/>
				<path style="fill-rule:evenodd;clip-rule:evenodd;fill:#2647A3;" d="M281.629,351.118c0.105,0.149-1.246,0.279-3.006,0.279
					h-8.148c-1.76,0-3.25-0.13-3.308-0.279l-0.235-0.627c-0.055-0.146,1.305-0.266,3.02-0.266h7.941c1.715,0,3.201,0.12,3.303,0.266
					L281.629,351.118z"/>
				<path style="fill-rule:evenodd;clip-rule:evenodd;fill:#2647A3;" d="M297.951,351.118c0.159,0.149-1.146,0.279-2.907,0.279
					h-7.213c-1.759,0-3.293-0.13-3.408-0.279l-0.472-0.627c-0.109-0.146,1.199-0.266,2.914-0.266h7.027
					c1.717,0,3.247,0.12,3.4,0.266L297.951,351.118z"/>
				<path style="fill-rule:evenodd;clip-rule:evenodd;fill:#2647A3;" d="M314.578,351.118c0.215,0.149-1.044,0.279-2.803,0.279
					h-7.521c-1.76,0-3.339-0.13-3.508-0.279l-0.695-0.627c-0.163-0.146,1.102-0.266,2.818-0.266h7.328
					c1.715,0,3.289,0.12,3.496,0.266L314.578,351.118z"/>
				<path style="fill-rule:evenodd;clip-rule:evenodd;fill:#2647A3;" d="M331.506,351.118c0.271,0.149-0.941,0.279-2.699,0.279
					h-7.82c-1.76,0-3.389-0.13-3.613-0.279l-0.924-0.627c-0.216-0.146,1.01-0.266,2.725-0.266h7.619c1.713,0,3.334,0.12,3.596,0.266
					L331.506,351.118z"/>
				<path style="fill-rule:evenodd;clip-rule:evenodd;fill:#2647A3;" d="M365.08,351.118c0.383,0.149-0.734,0.279-2.493,0.279
					h-24.571c-1.76,0-3.436-0.13-3.717-0.279l-1.155-0.627c-0.271-0.146,0.909-0.266,2.624-0.266h23.944
					c1.714,0,3.421,0.12,3.79,0.266L365.08,351.118z"/>
				<path style="fill-rule:evenodd;clip-rule:evenodd;fill:#2647A3;" d="M377.396,350.226c1.715,0,3.473,0.12,3.898,0.266
					l1.826,0.627c0.443,0.149-0.625,0.279-2.385,0.279h-8.936c-1.762,0-3.527-0.13-3.921-0.279l-1.616-0.627
					c-0.378-0.146,0.71-0.266,2.426-0.266H377.396z"/>
				<path style="fill-rule:evenodd;clip-rule:evenodd;fill:#2647A3;" d="M348.225,349.625c-0.324-0.151,0.794-0.265,2.478-0.265
					h6.887c1.681,0,3.344,0.113,3.712,0.265l0.244,0.099c0.359,0.136-0.732,0.256-2.438,0.256h-6.983
					c-1.708,0-3.366-0.12-3.684-0.256L348.225,349.625z"/>
				<path style="fill-rule:evenodd;clip-rule:evenodd;fill:#2647A3;" d="M331.531,349.625c-0.27-0.151,0.896-0.265,2.577-0.265
					h7.789c1.683,0,3.303,0.113,3.618,0.265l0.211,0.099c0.308,0.136-0.825,0.256-2.531,0.256h-7.899
					c-1.706,0-3.322-0.12-3.585-0.256L331.531,349.625z"/>
				<path style="fill-rule:evenodd;clip-rule:evenodd;fill:#2647A3;" d="M315.162,349.625c-0.217-0.151,0.991-0.265,2.673-0.265
					h7.473c1.68,0,3.262,0.113,3.522,0.265l0.174,0.099c0.254,0.136-0.93,0.256-2.633,0.256h-7.578c-1.705,0-3.278-0.12-3.488-0.256
					L315.162,349.625z"/>
				<path style="fill-rule:evenodd;clip-rule:evenodd;fill:#2647A3;" d="M299.08,349.625c-0.162-0.151,1.083-0.265,2.766-0.265
					h7.188c1.681,0,3.218,0.113,3.424,0.265l0.139,0.099c0.201,0.136-1.024,0.256-2.729,0.256h-7.289
					c-1.707,0-3.232-0.12-3.391-0.256L299.08,349.625z"/>
				<path style="fill-rule:evenodd;clip-rule:evenodd;fill:#2647A3;" d="M283.293,349.625c-0.109-0.151,1.178-0.265,2.858-0.265
					h6.892c1.684,0,3.179,0.113,3.333,0.265l0.101,0.099c0.149,0.136-1.119,0.256-2.826,0.256h-6.99
					c-1.705,0-3.188-0.12-3.295-0.256L283.293,349.625z"/>
				<path style="fill-rule:evenodd;clip-rule:evenodd;fill:#2647A3;" d="M266.604,349.625c-0.056-0.151,1.279-0.265,2.961-0.265
					h7.787c1.682,0,3.137,0.113,3.238,0.265l0.067,0.099c0.098,0.136-1.215,0.256-2.92,0.256h-7.896
					c-1.705,0-3.148-0.12-3.201-0.256L266.604,349.625z"/>
				<path style="fill-rule:evenodd;clip-rule:evenodd;fill:#2647A3;" d="M251.685,349.625c-0.007-0.151,1.365-0.265,3.047-0.265
					h6.029c1.683,0,3.093,0.113,3.14,0.265l0.03,0.099c0.044,0.136-1.312,0.256-3.019,0.256h-6.114c-1.705,0-3.105-0.12-3.11-0.256
					L251.685,349.625z"/>
				<path style="fill-rule:evenodd;clip-rule:evenodd;fill:#2647A3;" d="M235.598,349.625c0.046-0.151,1.462-0.265,3.142-0.265
					h7.189c1.684,0,3.055,0.113,3.053,0.265l-0.002,0.099c-0.004,0.136-1.401,0.256-3.108,0.256h-7.29
					c-1.704,0-3.063-0.12-3.015-0.256L235.598,349.625z"/>
				<path style="fill-rule:evenodd;clip-rule:evenodd;fill:#2647A3;" d="M219.814,349.625c0.098-0.151,1.554-0.265,3.234-0.265
					h6.893c1.681,0,3.011,0.113,2.956,0.265l-0.038,0.099c-0.056,0.136-1.497,0.256-3.201,0.256h-6.99
					c-1.704,0-3.019-0.12-2.92-0.256L219.814,349.625z"/>
				<path style="fill-rule:evenodd;clip-rule:evenodd;fill:#2647A3;" d="M203.126,349.625c0.154-0.151,1.65-0.265,3.334-0.265h7.789
					c1.68,0,2.969,0.113,2.861,0.265l-0.072,0.099c-0.107,0.136-1.59,0.256-3.294,0.256h-7.899c-1.707,0-2.974-0.12-2.822-0.256
					L203.126,349.625z"/>
				<path style="fill-rule:evenodd;clip-rule:evenodd;fill:#2647A3;" d="M187.145,349.625c0.207-0.151,1.745-0.265,3.428-0.265
					h7.084c1.683,0,2.929,0.113,2.767,0.265l-0.109,0.099c-0.162,0.136-1.691,0.256-3.396,0.256h-7.184
					c-1.708,0-2.932-0.12-2.728-0.256L187.145,349.625z"/>
				<path style="fill-rule:evenodd;clip-rule:evenodd;fill:#2647A3;" d="M171.061,349.625c0.258-0.151,1.842-0.265,3.521-0.265
					h7.191c1.681,0,2.883,0.113,2.668,0.265l-0.144,0.099c-0.213,0.136-1.783,0.256-3.487,0.256h-7.293
					c-1.704,0-2.887-0.12-2.631-0.256L171.061,349.625z"/>
				<path style="fill-rule:evenodd;clip-rule:evenodd;fill:#2647A3;" d="M155.276,349.625c0.311-0.151,1.936-0.265,3.614-0.265
					h6.893c1.681,0,2.845,0.113,2.577,0.265l-0.18,0.099c-0.265,0.136-1.881,0.256-3.586,0.256h-6.99
					c-1.703,0-2.844-0.12-2.536-0.256L155.276,349.625z"/>
				<path style="fill-rule:evenodd;clip-rule:evenodd;fill:#2647A3;" d="M138.588,349.625c0.366-0.151,2.032-0.265,3.713-0.265h7.79
					c1.681,0,2.801,0.113,2.481,0.265l-0.215,0.099c-0.316,0.136-1.973,0.256-3.678,0.256h-7.9c-1.706,0-2.799-0.12-2.438-0.256
					L138.588,349.625z"/>
				<path style="fill-rule:evenodd;clip-rule:evenodd;fill:#2647A3;" d="M97.315,357.813c-0.584,0.198,0.578,0.369,2.597,0.369
					h13.571c2.021,0,4.098-0.171,4.603-0.369l2.123-0.842c0.49-0.189-0.711-0.354-2.672-0.354h-13.167
					c-1.958,0-4.029,0.165-4.598,0.354L97.315,357.813z"/>
				<path style="fill-rule:evenodd;clip-rule:evenodd;fill:#2647A3;" d="M121.252,349.625c0.423-0.151,2.137-0.265,3.817-0.265h8.43
					c1.684,0,2.759,0.113,2.384,0.265l-0.251,0.099c-0.37,0.136-2.07,0.256-3.777,0.256h-8.549c-1.704,0-2.754-0.12-2.336-0.256
					L121.252,349.625z"/>
				<path style="fill-rule:evenodd;clip-rule:evenodd;fill:#2647A3;" d="M378.75,349.625c-0.426-0.151-2.137-0.265-3.818-0.265
					h-8.538c-1.684,0-2.761,0.113-2.384,0.265l0.25,0.099c0.367,0.136,2.07,0.256,3.777,0.256h8.658c1.705,0,2.752-0.12,2.336-0.256
					L378.75,349.625z"/>
				<path style="fill-rule:evenodd;clip-rule:evenodd;fill:#2647A3;" d="M402.685,357.813c0.586,0.198-0.576,0.369-2.598,0.369
					H389.83c-2.023,0-4.107-0.171-4.625-0.369l-2.176-0.842c-0.502-0.189,0.688-0.354,2.648-0.354h9.955
					c1.959,0,4.029,0.165,4.596,0.354L402.685,357.813z"/>
				<path style="fill-rule:evenodd;clip-rule:evenodd;fill:#2647A3;" d="M325.559,366.072c0.258,0.212-0.965,0.37-2.726,0.37
					H177.172c-1.763,0-2.979-0.158-2.724-0.37l8.756-7.014c0.198-0.154,1.603-0.289,3.145-0.289h127.306
					c1.539,0,2.951,0.135,3.146,0.289L325.559,366.072z"/>
			</g>
		</g>
		<g>
			<path style="fill:#FFFFFF;stroke:#2647A3;stroke-linecap:round;stroke-linejoin:round;" d="M273.555,250.921
				c-1.156,0-2.281,0.119-3.374,0.334c-3.915-8.071-12.163-13.65-21.733-13.65c-12.664,0-23.036,9.745-24.069,22.144
				c-0.73-0.126-1.477-0.204-2.244-0.204c-7.29,0-13.199,5.909-13.199,13.198c0,7.289,5.909,13.2,13.199,13.2
				c4.475,0,47.052,0,51.421,0c9.669,0,17.511-7.843,17.511-17.511C291.065,258.758,283.224,250.921,273.555,250.921z"/>
			<polygon style="fill:#BADBF7;stroke:#2647A3;stroke-linecap:round;stroke-linejoin:round;" points="257.938,265.522 
				257.938,273.667 242.063,273.667 242.063,265.522 238.584,265.522 238.584,276.854 261.416,276.854 261.416,265.522 			"/>
			<polygon style="fill:#BADBF7;stroke:#2647A3;stroke-linecap:round;stroke-linejoin:round;" points="256.777,261.354 
				250.001,254.577 243.224,261.354 245.058,263.189 248.64,259.605 248.64,267.938 251.362,267.938 251.362,259.605 
				254.944,263.189 			"/>
			
				<rect x="181.378" y="296.688" style="fill:#FFFFFF;stroke:#2647A3;stroke-linecap:round;stroke-linejoin:round;" width="137.243" height="7"/>
			
				<rect x="181.378" y="296.688" style="fill:#5190F5;stroke:#2647A3;stroke-linecap:round;stroke-linejoin:round;" width="67.607" height="7"/>
			<g>
				<g>
					<polyline style="fill:none;stroke:#2647A3;stroke-linecap:round;stroke-linejoin:round;" points="344.976,318.599 
						344.976,321.099 342.476,321.099 					"/>
					
						<line style="fill:none;stroke:#2647A3;stroke-linecap:round;stroke-linejoin:round;stroke-dasharray:4.9987,4.9987;" x1="337.477" y1="321.099" x2="160.024" y2="321.099"/>
					<polyline style="fill:none;stroke:#2647A3;stroke-linecap:round;stroke-linejoin:round;" points="157.524,321.099 
						155.024,321.099 155.024,318.599 					"/>
					
						<line style="fill:none;stroke:#2647A3;stroke-linecap:round;stroke-linejoin:round;stroke-dasharray:5.0198,5.0198;" x1="155.024" y1="313.579" x2="155.024" y2="215.692"/>
					<polyline style="fill:none;stroke:#2647A3;stroke-linecap:round;stroke-linejoin:round;" points="155.024,213.183 
						155.024,210.683 157.524,210.683 					"/>
					
						<line style="fill:none;stroke:#2647A3;stroke-linecap:round;stroke-linejoin:round;stroke-dasharray:4.9987,4.9987;" x1="162.523" y1="210.683" x2="339.977" y2="210.683"/>
					<polyline style="fill:none;stroke:#2647A3;stroke-linecap:round;stroke-linejoin:round;" points="342.476,210.683 
						344.976,210.683 344.976,213.183 					"/>
					
						<line style="fill:none;stroke:#2647A3;stroke-linecap:round;stroke-linejoin:round;stroke-dasharray:5.0198,5.0198;" x1="344.976" y1="218.203" x2="344.976" y2="316.089"/>
				</g>
			</g>
			<text transform="matrix(1 0 0 1 223.4128 223.3877)" style="fill:#2647A3; font-family:'Barlow-Bold'; font-size:6.1537px;">drop here to upload</text>
		</g>
		<g>
			<path style="fill:#D4DEE6;stroke:#2647A3;stroke-linecap:round;stroke-linejoin:round;" d="M413.083,307.599c0,1.657-1.343,3-3,3
				h-35.562c-1.656,0-3-1.343-3-3v-54.521c0-1.657,1.344-3,3-3h35.562c1.657,0,3,1.343,3,3V307.599z"/>
			<path style="fill:#FFFFFF;stroke:#2647A3;stroke-linecap:round;stroke-linejoin:round;" d="M407.75,312.099c0,1.657-1.343,3-3,3
				h-35.561c-1.657,0-3-1.343-3-3v-54.522c0-1.657,1.343-3,3-3h25.038L407.75,268.1V312.099z"/>
			<path style="fill:#BADBF7;stroke:#2647A3;stroke-linecap:round;stroke-linejoin:round;" d="M394.227,263.772
				c0,2.391,1.937,4.327,4.327,4.327h9.195l-13.523-13.523V263.772z"/>
			<g>
				
					<line style="fill:none;stroke:#2647A3;stroke-linecap:round;stroke-linejoin:round;" x1="370.564" y1="274.35" x2="393.875" y2="274.35"/>
				
					<line style="fill:none;stroke:#2647A3;stroke-linecap:round;stroke-linejoin:round;" x1="370.564" y1="278.433" x2="403.375" y2="278.433"/>
				
					<line style="fill:none;stroke:#2647A3;stroke-linecap:round;stroke-linejoin:round;" x1="370.564" y1="282.516" x2="403.375" y2="282.516"/>
				
					<line style="fill:none;stroke:#2647A3;stroke-linecap:round;stroke-linejoin:round;" x1="370.564" y1="286.599" x2="403.375" y2="286.599"/>
				
					<line style="fill:none;stroke:#2647A3;stroke-linecap:round;stroke-linejoin:round;" x1="370.564" y1="290.682" x2="403.375" y2="290.682"/>
				
					<line style="fill:none;stroke:#2647A3;stroke-linecap:round;stroke-linejoin:round;" x1="370.564" y1="294.765" x2="403.375" y2="294.765"/>
				
					<line style="fill:none;stroke:#2647A3;stroke-linecap:round;stroke-linejoin:round;" x1="370.564" y1="298.848" x2="403.375" y2="298.848"/>
				
					<line style="fill:none;stroke:#2647A3;stroke-linecap:round;stroke-linejoin:round;" x1="370.564" y1="302.931" x2="403.375" y2="302.931"/>
				
					<line style="fill:none;stroke:#2647A3;stroke-linecap:round;stroke-linejoin:round;" x1="370.564" y1="307.014" x2="403.375" y2="307.014"/>
			</g>
		</g>
		<g>
			<g>
				<path style="fill:#E8EFF5;stroke:#2647A3;stroke-linecap:round;stroke-linejoin:round;" d="M131.643,268.451
					c0.498,1.837-0.589,3.729-2.424,4.228l-34.913,9.46c-1.836,0.498-3.728-0.588-4.226-2.425l-11.655-43.016
					c-0.498-1.836,0.587-3.727,2.423-4.225l34.912-9.46c1.836-0.498,3.729,0.586,4.226,2.423L131.643,268.451z"/>
				
					<rect x="85.85" y="230.439" transform="matrix(0.9652 -0.2615 0.2615 0.9652 -61.3802 35.8328)" style="fill:#98D3FD;stroke:#2647A3;stroke-linecap:round;stroke-linejoin:round;" width="36.17" height="36.171"/>
				<path style="fill:#FFD373;stroke:#2647A3;stroke-linecap:round;stroke-linejoin:round;" d="M118.442,238.491
					c1.265,4.668-1.494,9.477-6.161,10.741c-4.667,1.265-9.476-1.494-10.741-6.161c-1.265-4.667,1.494-9.476,6.161-10.74
					C112.369,231.067,117.178,233.824,118.442,238.491z"/>
				<polygon style="fill:#64B05B;stroke:#2647A3;stroke-linecap:round;stroke-linejoin:round;" points="107.307,266.348 
					126.121,261.25 123.23,250.58 113.934,241.337 				"/>
				<polygon style="fill:#81D678;stroke:#2647A3;stroke-linecap:round;stroke-linejoin:round;" points="94.837,240.561 
					89.006,262.576 91.21,270.71 117.887,263.481 				"/>
			</g>
			<g>
				<path style="fill:#FFFFFF;stroke:#2647A3;stroke-linecap:round;stroke-linejoin:round;" d="M136.384,268.62
					c0,1.903-1.542,3.445-3.445,3.445H96.769c-1.902,0-3.445-1.542-3.445-3.445v-44.566c0-1.902,1.543-3.444,3.445-3.444h36.171
					c1.902,0,3.445,1.542,3.445,3.444V268.62z"/>
				
					<rect x="96.769" y="224.054" style="fill:#98D3FD;stroke:#2647A3;stroke-linecap:round;stroke-linejoin:round;" width="36.171" height="36.171"/>
				<path style="fill:#FFD373;stroke:#2647A3;stroke-linecap:round;stroke-linejoin:round;" d="M131.48,236.251
					c0,4.836-3.92,8.756-8.755,8.756c-4.835,0-8.756-3.92-8.756-8.756c0-4.835,3.92-8.756,8.756-8.756
					C127.56,227.495,131.48,231.416,131.48,236.251z"/>
				<polygon style="fill:#64B05B;stroke:#2647A3;stroke-linecap:round;stroke-linejoin:round;" points="113.447,260.225 
					132.939,260.225 132.939,249.171 126.384,237.816 				"/>
				<polygon style="fill:#81D678;stroke:#2647A3;stroke-linecap:round;stroke-linejoin:round;" points="108.156,232.075 
					96.769,251.798 96.769,260.225 124.408,260.225 				"/>
			</g>
		</g>
		<path style="fill:#FFFFFF;stroke:#2647A3;stroke-linecap:round;stroke-linejoin:round;" d="M185.456,250.002l-0.897-8.732
			c-0.158-1.537-1.531-2.657-3.07-2.498c-1.539,0.158-2.657,1.532-2.499,3.071l0.194,1.893c-15.78-10.842-35.367-6.601-36.28-6.395
			c-1.507,0.343-2.453,1.841-2.113,3.349c0.342,1.508,1.835,2.454,3.349,2.113c0.195-0.045,17.79-3.857,31.609,5.383l-2.095,0.217
			c-1.537,0.157-2.656,1.53-2.498,3.069c0.147,1.44,1.364,2.513,2.781,2.513c0.095,0,0.191-0.004,0.289-0.016l8.73-0.896
			C184.495,252.915,185.613,251.541,185.456,250.002z"/>
		<path style="fill:#2E7EFB;stroke:#2647A3;stroke-linecap:round;stroke-linejoin:round;" d="M337.32,273.872l0.897-8.732
			c0.158-1.537,1.531-2.657,3.07-2.498c1.538,0.158,2.656,1.532,2.498,3.071l-0.193,1.893c15.779-10.842,35.366-6.601,36.279-6.396
			c1.508,0.343,2.453,1.841,2.113,3.349c-0.343,1.508-1.836,2.454-3.35,2.113c-0.195-0.045-17.789-3.858-31.608,5.383l2.095,0.217
			c1.537,0.157,2.656,1.53,2.498,3.069c-0.146,1.44-1.363,2.513-2.781,2.513c-0.095,0-0.191-0.004-0.289-0.016l-8.73-0.896
			C338.281,276.785,337.163,275.411,337.32,273.872z"/>
		<g>
			<path style="fill:#FFAB73;stroke:#2647A3;stroke-linecap:round;stroke-linejoin:round;" d="M131.148,306.169
				c0.474-2.102,2.662-3.82,4.862-3.82h35.936c2.2,0,3.612,1.719,3.138,3.82l-5.079,22.525c-0.474,2.102-2.661,3.821-4.861,3.821
				h-35.937c-2.2,0-3.612-1.72-3.139-3.821L131.148,306.169z"/>
			<path style="fill:#FFD373;stroke:#2647A3;stroke-linecap:round;stroke-linejoin:round;" d="M151.753,307.938
				c-2.2,0-4-1.745-4-3.878s-1.8-3.878-4-3.878h-14.545c-2.2,0-4,1.8-4,4v24.334c0,2.2,1.8,4,4,4h35.937c2.2,0,4-1.8,4-4v-16.578
				c0-2.2-1.8-4-4-4H151.753z"/>
		</g>
		<g>
			<path style="fill:#FF879F;stroke:#2647A3;stroke-linecap:round;stroke-linejoin:round;" d="M370.885,211.98
				c0,3.696-2.994,6.691-6.69,6.691h-26.589c-3.694,0-6.69-2.995-6.69-6.691v-26.588c0-3.696,2.996-6.691,6.69-6.691h26.589
				c3.696,0,6.69,2.995,6.69,6.691V211.98z"/>
			<path style="fill:#FFFFFF;stroke:#2647A3;stroke-linecap:round;stroke-linejoin:round;" d="M343.451,191.596
				c0-2.75,1.949-3.875,4.33-2.5l12.281,7.091c2.382,1.375,2.382,3.625,0,5l-12.281,7.091c-2.381,1.375-4.33,0.25-4.33-2.5V191.596z
				"/>
		</g>
		<g>
			<path style="fill:#2E7EFB;stroke:#2647A3;stroke-linecap:round;stroke-linejoin:round;" d="M304.423,173.432
				c-0.259,0-0.468-0.208-0.468-0.468v-2.042c0-0.26,0.209-0.468,0.468-0.468h1.021v-1.692h-3.08v-23.04h3.08v-1.692h-1.021
				c-0.259,0-0.468-0.208-0.468-0.468v-2.042c0-0.26,0.209-0.468,0.468-0.468h1.021v-1.307h-59.142v1.307h1.021
				c0.259,0,0.468,0.208,0.468,0.468v2.042c0,0.26-0.209,0.468-0.468,0.468h-1.021v1.692h3.081v23.04h-3.081v1.692h1.021
				c0.259,0,0.468,0.208,0.468,0.468v2.042c0,0.26-0.209,0.468-0.468,0.468h-1.021v1.307h59.142v-1.307H304.423z M255.184,172.964
				c0,0.26-0.209,0.468-0.467,0.468h-2.045c-0.258,0-0.467-0.208-0.467-0.468v-2.042c0-0.26,0.209-0.468,0.467-0.468h2.045
				c0.258,0,0.467,0.208,0.467,0.468V172.964z M255.184,143.561c0,0.26-0.209,0.468-0.467,0.468h-2.045
				c-0.258,0-0.467-0.208-0.467-0.468v-2.042c0-0.26,0.209-0.468,0.467-0.468h2.045c0.258,0,0.467,0.208,0.467,0.468V143.561z
				 M262.576,172.964c0,0.26-0.209,0.468-0.467,0.468h-2.045c-0.258,0-0.467-0.208-0.467-0.468v-2.042
				c0-0.26,0.209-0.468,0.467-0.468h2.045c0.258,0,0.467,0.208,0.467,0.468V172.964z M262.576,143.561
				c0,0.26-0.209,0.468-0.467,0.468h-2.045c-0.258,0-0.467-0.208-0.467-0.468v-2.042c0-0.26,0.209-0.468,0.467-0.468h2.045
				c0.258,0,0.467,0.208,0.467,0.468V143.561z M269.969,172.964c0,0.26-0.209,0.468-0.467,0.468h-2.045
				c-0.258,0-0.466-0.208-0.466-0.468v-2.042c0-0.26,0.208-0.468,0.466-0.468h2.045c0.258,0,0.467,0.208,0.467,0.468V172.964z
				 M269.969,143.561c0,0.26-0.209,0.468-0.467,0.468h-2.045c-0.258,0-0.466-0.208-0.466-0.468v-2.042
				c0-0.26,0.208-0.468,0.466-0.468h2.045c0.258,0,0.467,0.208,0.467,0.468V143.561z M277.361,172.964
				c0,0.26-0.209,0.468-0.467,0.468h-2.043c-0.259,0-0.468-0.208-0.468-0.468v-2.042c0-0.26,0.209-0.468,0.468-0.468h2.043
				c0.258,0,0.467,0.208,0.467,0.468V172.964z M277.361,143.561c0,0.26-0.209,0.468-0.467,0.468h-2.043
				c-0.259,0-0.468-0.208-0.468-0.468v-2.042c0-0.26,0.209-0.468,0.468-0.468h2.043c0.258,0,0.467,0.208,0.467,0.468V143.561z
				 M284.754,172.964c0,0.26-0.209,0.468-0.466,0.468h-2.044c-0.259,0-0.468-0.208-0.468-0.468v-2.042
				c0-0.26,0.209-0.468,0.468-0.468h2.044c0.257,0,0.466,0.208,0.466,0.468V172.964z M284.754,143.561
				c0,0.26-0.209,0.468-0.466,0.468h-2.044c-0.259,0-0.468-0.208-0.468-0.468v-2.042c0-0.26,0.209-0.468,0.468-0.468h2.044
				c0.257,0,0.466,0.208,0.466,0.468V143.561z M292.147,172.964c0,0.26-0.208,0.468-0.467,0.468h-2.044
				c-0.258,0-0.467-0.208-0.467-0.468v-2.042c0-0.26,0.209-0.468,0.467-0.468h2.044c0.259,0,0.467,0.208,0.467,0.468V172.964z
				 M292.147,143.561c0,0.26-0.208,0.468-0.467,0.468h-2.044c-0.258,0-0.467-0.208-0.467-0.468v-2.042
				c0-0.26,0.209-0.468,0.467-0.468h2.044c0.259,0,0.467,0.208,0.467,0.468V143.561z M299.541,172.964
				c0,0.26-0.209,0.468-0.467,0.468h-2.045c-0.258,0-0.467-0.208-0.467-0.468v-2.042c0-0.26,0.209-0.468,0.467-0.468h2.045
				c0.258,0,0.467,0.208,0.467,0.468V172.964z M299.541,143.561c0,0.26-0.209,0.468-0.467,0.468h-2.045
				c-0.258,0-0.467-0.208-0.467-0.468v-2.042c0-0.26,0.209-0.468,0.467-0.468h2.045c0.258,0,0.467,0.208,0.467,0.468V143.561z"/>
			
				<rect x="254.557" y="145.722" style="fill:#FFFFFF;stroke:#2647A3;stroke-linecap:round;stroke-linejoin:round;" width="42.633" height="23.04"/>
			<path style="fill:#FF879F;stroke:#2647A3;stroke-linecap:round;stroke-linejoin:round;" d="M269.924,152.1
				c0-1.995,1.413-2.811,3.14-1.813l8.907,5.143c1.727,0.997,1.727,2.629,0,3.626l-8.907,5.143c-1.727,0.997-3.14,0.182-3.14-1.813
				V152.1z"/>
		</g>
		<g>
			<path style="fill:#D4DEE6;stroke:#2647A3;stroke-linecap:round;stroke-linejoin:round;" d="M217.942,197.16c0,1.657-1.343,3-3,3
				h-65.667c-1.657,0-3-1.343-3-3v-42.67c0-1.657,1.343-3,3-3h65.667c1.657,0,3,1.343,3,3V197.16z"/>
			<path style="fill:#FFFFFF;stroke:#2647A3;stroke-linecap:round;stroke-linejoin:round;" d="M223.695,202.912c0,1.657-1.343,3-3,3
				h-65.667c-1.657,0-3-1.343-3-3v-42.67c0-1.657,1.343-3,3-3h65.667c1.657,0,3,1.343,3,3V202.912z"/>
			<g>
				<path style="fill:#FF879F;stroke:#2647A3;stroke-linecap:round;stroke-linejoin:round;" d="M192.084,170.514
					c-2.861-4.222-7.697-6.997-13.182-6.997v15.914L192.084,170.514z"/>
				<path style="fill:#BADBF7;stroke:#2647A3;stroke-linecap:round;stroke-linejoin:round;" d="M194.033,190.791
					c1.491-2.424,2.366-5.266,2.366-8.319c0-3.305-1.008-6.373-2.732-8.917l-13.182,8.917
					C180.485,182.472,187.735,186.924,194.033,190.791z"/>
				<path style="fill:#81D678;stroke:#2647A3;stroke-linecap:round;stroke-linejoin:round;" d="M177.475,183.725
					c0.001,0.001-5.722,6.294-10.693,11.762c2.827,2.571,6.571,4.152,10.693,4.152c5.735,0,10.747-3.044,13.548-7.595
					C184.725,188.177,177.475,183.725,177.475,183.725z"/>
				<path style="fill:#FFD373;stroke:#2647A3;stroke-linecap:round;stroke-linejoin:round;" d="M174.738,164.56
					c-8.79,0-15.914,7.125-15.914,15.914c0,4.667,2.021,8.851,5.221,11.762c4.971-5.468,10.694-11.761,10.693-11.762V164.56z"/>
			</g>
			
				<line style="fill:none;stroke:#2647A3;stroke-linecap:round;stroke-linejoin:round;" x1="204.816" y1="172.324" x2="216.983" y2="172.324"/>
			
				<line style="fill:none;stroke:#2647A3;stroke-linecap:round;stroke-linejoin:round;" x1="204.816" y1="176.324" x2="216.983" y2="176.324"/>
			
				<line style="fill:none;stroke:#2647A3;stroke-linecap:round;stroke-linejoin:round;" x1="204.816" y1="180.324" x2="216.983" y2="180.324"/>
			
				<line style="fill:none;stroke:#2647A3;stroke-linecap:round;stroke-linejoin:round;" x1="204.816" y1="184.324" x2="216.983" y2="184.324"/>
			
				<line style="fill:none;stroke:#2647A3;stroke-linecap:round;stroke-linejoin:round;" x1="204.816" y1="188.324" x2="216.983" y2="188.324"/>
		</g>
		<g>
			<path style="fill:#BADBF7;" d="M237.112,177.352h-2.316v-2.313c0-0.746-0.604-1.351-1.349-1.351c-0.744,0-1.35,0.604-1.35,1.351
				v2.313h-2.314c-0.744,0-1.349,0.605-1.349,1.349c0,0.745,0.605,1.351,1.349,1.351h2.314v2.314c0,0.745,0.605,1.35,1.35,1.35
				c0.745,0,1.349-0.604,1.349-1.35v-2.314h2.316c0.743,0,1.348-0.605,1.348-1.351C238.459,177.956,237.855,177.352,237.112,177.352
				z"/>
			<path style="fill:#FFD373;" d="M453.362,329.791h-2.315v-2.313c0-0.745-0.603-1.35-1.348-1.35s-1.351,0.604-1.351,1.35v2.313
				h-2.313c-0.744,0-1.35,0.606-1.35,1.349c0,0.745,0.605,1.351,1.35,1.351h2.313v2.314c0,0.744,0.605,1.349,1.351,1.349
				s1.348-0.604,1.348-1.349v-2.314h2.315c0.745,0,1.35-0.605,1.35-1.351C454.712,330.397,454.107,329.791,453.362,329.791z"/>
			<path style="fill:#FF879F;" d="M148.997,137.442l-1.639-1.637l1.637-1.637c0.525-0.525,0.526-1.38,0-1.907
				c-0.526-0.525-1.382-0.525-1.909,0l-1.635,1.636l-1.636-1.636c-0.526-0.525-1.382-0.525-1.908,0
				c-0.527,0.526-0.527,1.382,0,1.907l1.636,1.637l-1.638,1.637c-0.525,0.526-0.525,1.381,0,1.908c0.528,0.526,1.382,0.526,1.909,0
				l1.636-1.637l1.637,1.637c0.526,0.526,1.382,0.526,1.91,0C149.521,138.823,149.521,137.969,148.997,137.442z"/>
			<path style="fill:none;stroke:#FF879F;stroke-miterlimit:10;" d="M328.536,163.518c0,2.515-2.038,4.551-4.552,4.551
				c-2.516,0-4.552-2.036-4.552-4.551c0-2.514,2.036-4.552,4.552-4.552C326.498,158.966,328.536,161.004,328.536,163.518z"/>
			<path style="fill:none;stroke:#A7D678;stroke-linecap:round;stroke-linejoin:round;stroke-miterlimit:10;" d="M454.252,252.575
				c0,2.515-2.039,4.552-4.553,4.552s-4.551-2.037-4.551-4.552c0-2.513,2.037-4.551,4.551-4.551S454.252,250.063,454.252,252.575z"
				/>
			<polygon style="fill:none;stroke:#2E7EFB;stroke-linejoin:round;stroke-miterlimit:10;" points="319.771,121.49 324.402,123.849 
				320.045,126.679 			"/>
			<polygon style="fill:none;stroke:#2E7EFB;stroke-linejoin:round;stroke-miterlimit:10;" points="41.193,319.148 45.822,321.508 
				41.465,324.338 			"/>
			<path style="fill:none;stroke:#FF879F;stroke-miterlimit:10;" d="M76.458,169.532c4.125,0,4.125,3.883,8.254,3.883
				c4.127,0,4.127-3.883,8.258-3.883c4.129,0,4.129,3.883,8.258,3.883s4.129-3.883,8.257-3.883c4.131,0,4.131,3.883,8.263,3.883
				c4.131,0,4.131-3.883,8.262-3.883"/>
			<path style="fill:none;stroke:#2E7EFB;stroke-linecap:round;stroke-linejoin:round;stroke-miterlimit:10;" d="M404.65,196.745
				c4.129,0,4.129,3.884,8.256,3.884c4.129,0,4.129-3.884,8.255-3.884c4.131,0,4.131,3.884,8.26,3.884
				c4.129,0,4.129-3.884,8.256-3.884c4.134,0,4.134,3.884,8.266,3.884c4.13,0,4.13-3.884,8.262-3.884"/>
			<path style="fill:none;stroke:#A7D678;stroke-linecap:round;stroke-linejoin:round;stroke-miterlimit:10;" d="M53.527,274.914
				c4.128,0,4.128,3.882,8.256,3.882s4.128-3.882,8.256-3.882c4.13,0,4.13,3.882,8.26,3.882c4.127,0,4.127-3.882,8.256-3.882
				c4.133,0,4.133,3.882,8.266,3.882c4.129,0,4.129-3.882,8.262-3.882"/>
		</g>
	</g>
</g>
<g id="DESIGNED_BY_FREEPIK">
	<g>
		<g id="XMLID_525_">
			<g id="XMLID_544_">
				<path id="XMLID_552_" style="fill:#292B2E;" d="M260.103,465.471c-0.432,0.443-0.803,0.932-1.107,1.453l-0.465-0.24
					c-0.068-0.297-0.35-0.502-0.66-0.467c-0.332,0.039-0.566,0.34-0.531,0.67c0.041,0.332,0.342,0.568,0.672,0.529
					c0.066-0.008,0.125-0.025,0.184-0.053l0.451,0.234c-0.25,0.555-0.432,1.139-0.541,1.744l0.748,0.131
					c0.23-1.305,0.85-2.506,1.793-3.473L260.103,465.471z"/>
				<path id="XMLID_551_" style="fill:#292B2E;" d="M265.589,463.17c-0.17,0-0.34,0.006-0.508,0.016l-0.074-0.625
					c0.188-0.15,0.297-0.389,0.266-0.645c-0.045-0.393-0.402-0.674-0.795-0.629c-0.393,0.047-0.674,0.402-0.627,0.797
					c0.029,0.254,0.188,0.461,0.404,0.563l0.072,0.625c-0.713,0.115-1.404,0.332-2.059,0.644l0.326,0.686
					c0.936-0.447,1.941-0.674,2.994-0.674c0.498,0,0.994,0.053,1.477,0.158l0.158-0.742
					C266.689,463.228,266.14,463.17,265.589,463.17z"/>
				<path id="XMLID_550_" style="fill:#292B2E;" d="M272.192,465.717c0.33-0.041,0.564-0.342,0.525-0.672
					c-0.039-0.332-0.34-0.566-0.672-0.525c-0.309,0.037-0.535,0.303-0.529,0.608l-0.416,0.363c-0.418-0.43-0.891-0.813-1.408-1.139
					l-0.406,0.641c1.137,0.715,2.023,1.727,2.566,2.926l0.688-0.313c-0.25-0.555-0.566-1.072-0.939-1.545l0.402-0.351
					C272.064,465.721,272.128,465.725,272.192,465.717z"/>
				<path id="XMLID_549_" style="fill:#292B2E;" d="M265.044,473.377c-0.387,0.023-0.775,0.035-1.158,0.035
					c-0.879,0-1.732-0.061-2.48-0.18c-0.389-0.06-0.844-0.154-1.27-0.291c1.049,1.861,3.07,3.125,5.391,3.125
					c2.855,0,5.26-1.916,5.947-4.504c-0.68,0.449-1.504,0.826-2.457,1.123C267.837,473.053,266.462,473.293,265.044,473.377z"/>
				<path id="XMLID_545_" style="fill:#292B2E;" d="M265.589,464.685c-3.352,0-6.078,2.666-6.078,5.943
					c0,0.426,0.045,0.85,0.137,1.262c0.674,0.482,2.705,0.891,5.348,0.73c2.881-0.174,5.295-0.957,6.672-2.158
					c-0.004-0.195-0.02-0.391-0.045-0.582C271.243,466.92,268.649,464.685,265.589,464.685z M263.431,471.201
					c-1.02,0-1.85-0.83-1.85-1.85c0-1.021,0.83-1.852,1.85-1.852c1.02,0,1.85,0.83,1.85,1.852
					C265.28,470.371,264.45,471.201,263.431,471.201z M268.169,470.293c-0.75,0-1.363-0.611-1.363-1.361s0.613-1.359,1.363-1.359
					s1.359,0.609,1.359,1.359S268.919,470.293,268.169,470.293z"/>
			</g>
			<path id="XMLID_542_" style="fill:#292B2E;" d="M281.595,466.553c-0.295-0.115-0.809-0.309-1.383-0.238
				c-0.551,0.07-0.844,0.342-0.844,1.008v0.865h2.228v1.717h-2.228v5.455h-1.932v-5.455h-1.34v-1.717h1.34v-0.889
				c0-1.68,0.895-2.781,2.568-2.781c0.643,0,1.156,0.121,1.59,0.307V466.553z"/>
			<path id="XMLID_540_" style="fill:#292B2E;" d="M286.296,469.885c-0.178-0.029-0.359-0.047-0.527-0.047
				c-0.893,0-1.508,0.549-1.508,1.613v3.908h-1.932v-7.172h1.873v0.785c0.451-0.674,1.137-0.977,2.018-0.977
				c0.416,0,0.85,0.127,1.098,0.336L286.296,469.885z"/>
			<path id="XMLID_537_" style="fill:#292B2E;" d="M293.964,471.764c0,0.221-0.016,0.488-0.037,0.65h-5.084
				c0.207,1.037,0.93,1.488,1.842,1.488c0.621,0,1.295-0.252,1.814-0.689l1.133,1.244c-0.814,0.748-1.852,1.088-3.059,1.088
				c-2.197,0-3.723-1.496-3.723-3.752c0-2.258,1.48-3.797,3.627-3.797C292.54,467.996,293.954,469.527,293.964,471.764z
				 M288.851,471.098h3.172c-0.176-0.918-0.732-1.438-1.559-1.438C289.552,469.66,289.021,470.209,288.851,471.098z"/>
			<path id="XMLID_534_" style="fill:#292B2E;" d="M301.618,471.764c0,0.221-0.016,0.488-0.037,0.65h-5.086
				c0.207,1.037,0.934,1.488,1.844,1.488c0.621,0,1.295-0.252,1.813-0.689l1.133,1.244c-0.814,0.748-1.85,1.088-3.057,1.088
				c-2.199,0-3.723-1.496-3.723-3.752c0-2.258,1.48-3.797,3.627-3.797C300.196,467.996,301.61,469.527,301.618,471.764z
				 M296.503,471.098h3.176c-0.178-0.918-0.734-1.438-1.563-1.438C297.206,469.66,296.673,470.209,296.503,471.098z"/>
			<path id="XMLID_531_" style="fill:#292B2E;" d="M309.964,471.77c0,2.154-1.496,3.775-3.475,3.775
				c-0.959,0-1.641-0.377-2.107-0.932v3.707h-1.926v-10.133h1.889v0.793c0.467-0.586,1.154-0.984,2.139-0.984
				C308.468,467.996,309.964,469.617,309.964,471.77z M304.286,471.77c0,1.133,0.748,1.977,1.844,1.977
				c1.139,0,1.85-0.881,1.85-1.977c0-1.094-0.711-1.975-1.85-1.975C305.034,469.795,304.286,470.639,304.286,471.77z"/>
			<path id="XMLID_528_" style="fill:#292B2E;" d="M313.067,465.842c0,0.695-0.541,1.229-1.236,1.229
				c-0.697,0-1.229-0.533-1.229-1.229c0-0.695,0.531-1.244,1.229-1.244C312.526,464.598,313.067,465.147,313.067,465.842z
				 M312.806,475.359h-1.93v-7.172h1.93V475.359z"/>
			<path id="XMLID_526_" style="fill:#292B2E;" d="M316.03,470.742l2.703-2.555h2.369l-3.48,3.375l3.504,3.797h-2.379l-2.717-2.9
				v2.9h-1.932v-10.658h1.932V470.742z"/>
		</g>
		<g>
			<path style="fill:#292B2E;" d="M184.413,475.295v-1.055c-0.527,0.719-1.395,1.23-2.389,1.23c-1.844,0-3.146-1.406-3.146-3.705
				c0-2.256,1.289-3.721,3.146-3.721c0.953,0,1.816,0.469,2.389,1.244v-3.764h1.098v9.77H184.413z M184.413,473.377v-3.209
				c-0.396-0.615-1.246-1.143-2.125-1.143c-1.42,0-2.27,1.172-2.27,2.74c0,1.566,0.85,2.725,2.27,2.725
				C183.167,474.49,184.017,473.992,184.413,473.377z"/>
			<path style="fill:#292B2E;" d="M186.933,471.75c0-2.051,1.465-3.705,3.486-3.705c2.139,0,3.398,1.67,3.398,3.793v0.279h-5.73
				c0.09,1.332,1.027,2.445,2.551,2.445c0.807,0,1.627-0.322,2.182-0.893l0.529,0.717c-0.703,0.703-1.656,1.084-2.813,1.084
				C188.44,475.471,186.933,473.963,186.933,471.75z M190.403,468.953c-1.508,0-2.256,1.273-2.316,2.357h4.646
				C192.718,470.256,192.015,468.953,190.403,468.953z"/>
			<path style="fill:#292B2E;" d="M194.608,474.357l0.57-0.791c0.469,0.543,1.363,1.012,2.326,1.012
				c1.088,0,1.674-0.514,1.674-1.217c0-1.713-4.381-0.658-4.381-3.281c0-1.098,0.951-2.035,2.637-2.035
				c1.199,0,2.049,0.453,2.623,1.025l-0.514,0.762c-0.424-0.514-1.201-0.895-2.109-0.895c-0.967,0-1.566,0.484-1.566,1.113
				c0,1.553,4.379,0.527,4.379,3.281c0,1.188-0.951,2.139-2.783,2.139C196.308,475.471,195.325,475.119,194.608,474.357z"/>
			<path style="fill:#292B2E;" d="M201.477,466.477c0-0.41,0.338-0.746,0.733-0.746c0.41,0,0.744,0.336,0.744,0.746
				c0,0.41-0.334,0.732-0.744,0.732C201.815,467.209,201.477,466.887,201.477,466.477z M201.667,475.295v-7.074h1.1v7.074H201.667z"
				/>
			<path style="fill:#292B2E;" d="M204.583,477.111l0.555-0.82c0.588,0.703,1.291,0.967,2.301,0.967c1.172,0,2.272-0.57,2.272-2.123
				v-1.012c-0.514,0.719-1.377,1.26-2.373,1.26c-1.846,0-3.15-1.377-3.15-3.662c0-2.27,1.289-3.676,3.15-3.676
				c0.951,0,1.801,0.469,2.373,1.244v-1.068h1.098v6.869c0,2.344-1.641,3.076-3.369,3.076
				C206.235,478.166,205.417,477.932,204.583,477.111z M209.71,473.26v-3.092c-0.381-0.615-1.231-1.143-2.109-1.143
				c-1.422,0-2.271,1.129-2.271,2.695c0,1.553,0.85,2.695,2.271,2.695C208.479,474.416,209.329,473.875,209.71,473.26z"/>
			<path style="fill:#292B2E;" d="M217.413,475.295v-4.629c0-1.244-0.629-1.641-1.582-1.641c-0.863,0-1.684,0.527-2.096,1.1v5.17
				h-1.098v-7.074h1.098v1.025c0.5-0.586,1.465-1.201,2.52-1.201c1.48,0,2.258,0.746,2.258,2.285v4.965H217.413z"/>
			<path style="fill:#292B2E;" d="M219.933,471.75c0-2.051,1.465-3.705,3.486-3.705c2.139,0,3.398,1.67,3.398,3.793v0.279h-5.727
				c0.088,1.332,1.025,2.445,2.547,2.445c0.807,0,1.627-0.322,2.182-0.893l0.529,0.717c-0.703,0.703-1.654,1.084-2.813,1.084
				C221.442,475.471,219.933,473.963,219.933,471.75z M223.403,468.953c-1.508,0-2.254,1.273-2.313,2.357h4.643
				C225.718,470.256,225.017,468.953,223.403,468.953z"/>
			<path style="fill:#292B2E;" d="M233.351,475.295v-1.055c-0.529,0.719-1.391,1.23-2.387,1.23c-1.848,0-3.15-1.406-3.15-3.705
				c0-2.256,1.289-3.721,3.15-3.721c0.951,0,1.816,0.469,2.387,1.244v-3.764h1.1v9.77H233.351z M233.351,473.377v-3.209
				c-0.396-0.615-1.246-1.143-2.123-1.143c-1.424,0-2.273,1.172-2.273,2.74c0,1.566,0.85,2.725,2.273,2.725
				C232.104,474.49,232.954,473.992,233.351,473.377z"/>
			<path style="fill:#292B2E;" d="M239.692,475.295v-9.77h1.1v3.764c0.57-0.775,1.418-1.244,2.385-1.244
				c1.844,0,3.15,1.465,3.15,3.721c0,2.299-1.307,3.705-3.15,3.705c-0.996,0-1.857-0.512-2.385-1.23v1.055H239.692z M242.899,474.49
				c1.436,0,2.283-1.158,2.283-2.725c0-1.568-0.848-2.74-2.283-2.74c-0.865,0-1.729,0.527-2.107,1.143v3.209
				C241.171,473.992,242.034,474.49,242.899,474.49z"/>
			<path style="fill:#292B2E;" d="M247.528,477.068c0.158,0.072,0.424,0.117,0.6,0.117c0.482,0,0.805-0.162,1.053-0.748l0.469-1.068
				l-2.957-7.148h1.188l2.355,5.801l2.346-5.801h1.201l-3.547,8.51c-0.424,1.025-1.143,1.422-2.078,1.435
				c-0.236,0-0.6-0.043-0.807-0.103L247.528,477.068z"/>
		</g>
	</g>
</g>
</svg>
